<svg width="87" height="60" viewBox="0 0 87 60" fill="none" xmlns="http://www.w3.org/2000/svg">
<path d="M79.2376 47.6369C78.6301 46.6648 77.9011 45.4498 77.9011 44.3563C77.9011 31.1122 77.9011 17.8682 78.0226 4.62418C78.0226 1.34355 77.2936 -0.114509 73.6484 0.00699613C53.1141 0.128501 32.5798 0.128501 12.0455 0.00699613C8.76485 0.00699613 7.6713 1.10054 7.6713 4.38117C7.79281 17.1392 7.79281 29.7757 7.6713 42.5337C7.6713 44.1132 6.94227 45.8143 6.21325 47.2724C4.14766 50.796 3.78315 51.1605 1.11004 55.4132C-2.29209 59.6659 3.05412 59.9089 4.75519 59.9089C30.1497 60.0304 55.5442 60.0304 80.9387 59.9089C86.7709 60.1519 87.0139 58.3293 84.7053 55.2917C81.9107 51.039 81.5462 50.9175 79.2376 47.6369ZM10.4659 4.25966C17.9992 4.25966 25.2895 4.25966 32.4583 4.25966C45.4593 4.25966 58.3388 4.38117 71.3398 4.13816C74.4989 4.13816 75.714 4.86719 75.714 8.26932C75.471 18.9617 75.5925 29.6542 75.5925 40.7111C53.7216 40.7111 32.2153 40.7111 10.4659 40.7111C10.4659 28.6821 10.4659 16.7747 10.4659 4.25966ZM50.5625 56.5067C44.8518 56.5067 39.2626 56.5067 33.4303 56.5067C33.1873 53.8336 34.0378 52.7401 36.5895 52.7401C40.5991 52.8616 43.2722 52.6186 47.5249 52.8616C49.8335 52.8616 50.684 54.0766 50.5625 56.5067ZM6.82077 51.1605C8.27883 48.8519 8.76485 46.9079 13.0175 47.0294C31.2432 47.5154 49.5905 46.9079 67.9377 46.7864C70.4893 46.7864 73.1624 46.3003 75.471 47.0294C77.1721 47.5154 78.3871 49.4595 80.3312 51.1605C55.3012 51.1605 31.2432 51.1605 6.82077 51.1605Z" fill="white"/>
</svg>
