<svg width="100" height="64" viewBox="0 0 100 64" fill="none" xmlns="http://www.w3.org/2000/svg">
<g clip-path="url(#clip0_824_1355)">
<path d="M84.8505 38.7878C70.1606 38.7878 55.3057 38.7878 40.6159 38.7878C32.1981 38.7878 23.6153 38.7878 15.1975 38.7878C11.7314 38.7878 9.09047 40.2733 7.10981 43.2443C5.29421 46.2153 5.12915 49.6814 6.61464 52.8175C8.26519 55.9535 11.5663 57.7691 15.1975 57.9342C19.9841 57.9342 24.7706 58.0992 29.5572 58.0992C33.0234 58.0992 36.4895 58.0992 39.7906 58.0992C43.2568 58.0992 46.7229 58.0992 50.024 58.0992H50.8493C53.9853 58.0992 56.9563 58.0992 60.0923 58.0992C68.18 58.0992 76.5977 58.0992 84.8505 58.0992C90.1322 58.0992 94.2586 53.9729 94.2586 48.5261C94.2586 42.7492 90.2973 38.7878 84.8505 38.7878ZM85.0155 56.1186C76.7628 56.2836 68.345 56.1186 60.2574 56.1186C56.9563 56.1186 53.4901 56.1186 50.189 56.1186H49.3638C46.2277 56.1186 43.0917 56.1186 39.9557 56.1186C31.868 56.1186 23.6153 56.1186 15.3626 56.1186C12.2265 56.1186 9.58562 54.468 8.26519 51.9922C6.94475 49.5164 7.10983 46.5454 8.59532 44.2346C10.2459 41.7588 12.3916 40.6034 15.1975 40.6034C23.6153 40.6034 32.1981 40.6034 40.6159 40.6034C55.3057 40.6034 70.1606 40.6034 84.8505 40.6034C89.3069 40.6034 92.6081 43.9045 92.6081 48.361C92.7731 52.6524 89.472 55.9535 85.0155 56.1186Z" fill="white"/>
<path d="M99.8704 46.7104C98.715 38.6227 92.608 33.1759 84.5204 33.1759C61.5778 33.1759 38.8002 33.1759 15.8577 33.1759C11.2361 33.1759 7.10976 34.8264 4.13878 37.6324C1.33286 40.4383 -0.152634 44.2346 0.0124207 48.3609C0.0124207 56.9437 6.61461 63.2158 15.8577 63.3809C20.4792 63.3809 25.1007 63.3809 29.5572 63.3809C33.0233 63.3809 36.3244 63.3809 39.7906 63.3809H50.024H57.6164C66.3643 63.3809 75.1122 63.3809 83.6951 63.3809C85.3456 63.3809 87.3262 63.2158 88.9768 62.7207C96.0741 60.5749 100.861 53.6427 99.8704 46.7104ZM88.6467 61.0701C87.1612 61.5653 85.3456 61.5653 83.8601 61.5653C75.1123 61.5653 66.5294 61.5653 57.7815 61.5653H50.189H39.9556C32.033 61.5653 23.9453 61.5653 16.0227 61.5653C7.77 61.5653 1.99308 56.1185 1.82803 48.1959C1.82803 44.3996 3.14847 41.0985 5.62429 38.6227C8.26516 35.9818 11.8964 34.6614 16.1878 34.6614C27.4115 34.6614 38.4701 34.6614 49.6938 34.6614C61.4127 34.6614 73.1316 34.6614 84.8504 34.6614C91.9478 34.6614 97.5597 39.613 98.55 46.8754C99.0452 52.9824 94.7537 59.2545 88.6467 61.0701Z" fill="white"/>
<path d="M13.3818 31.8556C18.3334 32.1857 23.4501 32.3508 25.7609 25.0884L27.7416 26.4088C29.7222 27.7292 31.5378 29.0497 33.3534 30.205C34.5088 31.0303 35.9943 31.8556 37.4798 31.6905C38.4701 31.5255 39.1303 30.8653 39.7905 29.8749C41.6061 26.904 39.4604 25.2534 37.8098 23.7679L37.6448 23.6029C33.5185 20.1367 29.7222 16.8356 26.256 13.5345C24.4404 11.7189 21.9646 10.8937 19.6539 11.0587C17.8383 11.2238 16.3528 12.2141 15.3625 13.6996C13.0517 17.3308 10.906 21.127 8.7603 25.2534C7.76997 27.069 6.77963 28.8846 5.62425 30.8653L4.63391 32.5158L6.44952 32.0206C8.92534 31.5255 11.2361 31.6905 13.3818 31.8556ZM10.4108 26.0787C12.5566 22.1174 14.7023 18.3211 17.013 14.6899C17.6732 13.5345 18.8286 12.8743 20.149 12.7093C21.9646 12.5442 23.9453 13.2044 25.4308 14.6899C28.8969 17.991 32.6932 21.4572 36.8196 24.7582L36.9846 24.9233C38.9652 26.5738 39.6254 27.2341 38.6351 28.8846C38.305 29.5448 37.8099 29.8749 37.3147 30.04C36.4894 30.205 35.3341 29.5448 34.3437 28.8846C32.5281 27.5642 30.7125 26.4088 28.7319 25.0884L24.7706 22.4475L24.4405 23.6029C22.6249 30.7002 18.4985 30.5351 13.3818 30.3701C12.3915 30.3701 11.4012 30.205 10.4108 30.205C9.58557 30.205 8.76027 30.205 7.935 30.3701C8.92533 28.7195 9.58557 27.3991 10.4108 26.0787Z" fill="white"/>
<path d="M29.062 13.3694C32.8583 13.3694 35.6642 10.3984 35.6642 6.60218C35.6642 2.80593 32.8583 0 29.062 0C25.2658 0 22.2948 2.80593 22.2948 6.43712C22.2948 8.25272 22.955 9.90327 24.2755 11.2237C25.4309 12.5441 27.2464 13.3694 29.062 13.3694ZM29.062 1.65055C32.033 1.65055 34.0137 3.79625 34.0137 6.60218C34.0137 9.40811 32.033 11.5538 29.062 11.7189C27.7416 11.7189 26.2561 11.2237 25.2658 10.2334C24.2755 9.24305 23.7803 7.92262 23.7803 6.60218C23.9453 3.79625 26.2561 1.65055 29.062 1.65055Z" fill="white"/>
<path d="M78.9085 42.5841C75.7724 42.5841 73.2966 45.06 73.1316 48.0309C72.9665 51.167 75.7724 53.9729 78.9085 53.9729C82.2096 53.9729 84.6854 51.4971 84.6854 48.196C84.6854 44.8949 82.2096 42.4191 78.9085 42.5841Z" fill="white"/>
<path d="M40.2856 42.584C36.9845 42.584 34.5087 44.8947 34.5087 48.3609C34.5087 51.4969 36.8195 53.9727 39.9555 54.1378C43.0915 54.3029 45.8974 51.662 46.0625 48.526C46.2275 45.2249 43.5867 42.584 40.2856 42.584Z" fill="white"/>
<path d="M20.8093 42.584C17.5082 42.584 14.8673 45.2249 15.0324 48.3609C15.1974 51.3319 17.8383 53.8077 20.8093 53.9728C24.1104 54.1378 26.5862 51.4969 26.5862 48.1958C26.5862 44.8948 24.1104 42.584 20.8093 42.584Z" fill="white"/>
<path d="M59.5971 42.584C56.296 42.584 53.8202 45.2249 53.9852 48.526C54.1503 51.4969 56.6261 53.9727 59.7621 54.1378C62.8982 54.1378 65.539 51.4969 65.539 48.3609C65.374 44.8947 62.8981 42.584 59.5971 42.584Z" fill="white"/>
<path d="M59.4321 16.6705H45.5675V31.5254H59.4321V16.6705ZM57.7815 29.7098H47.2181V18.156H57.7815V29.7098Z" fill="white"/>
<path d="M79.0736 16.6705H65.209V31.5254H79.0736V16.6705ZM77.423 29.7098H66.8595V18.156H77.423V29.7098Z" fill="white"/>
</g>
<defs>
<clipPath id="clip0_824_1355">
<rect width="100" height="63.3809" fill="white"/>
</clipPath>
</defs>
</svg>
