<svg width="51" height="80" viewBox="0 0 51 80" fill="none" xmlns="http://www.w3.org/2000/svg">
<g clip-path="url(#clip0_824_1339)">
<path d="M0 46.0368V66.1214L25.275 80.0001L50.5501 65.8957V45.8111L25.0494 31.2554L0 46.0368ZM24.8237 78.1947L1.35401 65.3316V54.8379L24.9365 67.7011L24.8237 78.1947ZM24.9366 66.2342L1.35402 53.371V47.3908L25.0494 60.4796L24.9366 66.2342ZM49.1961 65.1059L25.7264 78.1947L25.8392 67.8139L49.1961 54.8379V65.1059ZM49.1961 53.371L25.9521 66.3471V60.5925L49.1961 47.2779V53.371ZM48.7447 46.3752L25.5007 59.6898L1.91819 46.6009L25.1622 32.9479L48.7447 46.3752Z" fill="white"/>
<path d="M18.0536 22.7926C20.1974 19.9718 22.2285 17.1509 24.3723 14.33C24.7108 13.8787 25.275 13.4273 25.8392 13.4273C26.2905 13.4273 27.1932 13.8786 27.4189 14.2172C30.2397 18.5049 39.3794 32.8349 41.0719 35.0916C41.5232 34.9786 44.2313 37.574 44.6826 37.4612C42.7644 33.9633 40.5077 30.0141 38.4767 26.5162C36.897 23.6953 34.9788 20.9873 33.2863 18.2792C31.5938 15.4583 29.2242 10.6065 30.1269 8.01128C30.8039 5.98025 29.5627 5.41602 28.6601 3.94916C28.2087 3.27215 27.983 2.14379 27.8702 1.24114C27.8702 0.789771 26.9675 0.338484 26.5162 0C25.952 0.451326 25.275 0.902608 24.9365 1.35398C24.4852 2.14379 24.598 2.93363 24.1467 3.72348C23.6953 4.62618 22.4541 5.52887 22.4541 6.43157C22.6798 10.7193 21.3258 14.5557 18.0536 18.2792C14.5557 22.3413 11.7348 26.5162 8.68826 30.8039C7.44707 32.4965 6.77005 34.3018 5.86737 36.1072C7.67273 35.2045 8.91392 34.0761 10.1551 32.9478C10.945 32.3836 17.2637 23.8081 18.0536 22.7926ZM26.4034 6.09305C27.4189 6.09305 28.3215 6.88284 28.3215 7.89838C28.3215 8.91387 27.5317 9.70377 26.4034 9.70377C25.3878 9.70377 24.4852 8.91387 24.4852 7.89838C24.4852 6.88284 25.3878 6.09305 26.4034 6.09305Z" fill="white"/>
</g>
<defs>
<clipPath id="clip0_824_1339">
<rect width="50.5501" height="80" fill="white"/>
</clipPath>
</defs>
</svg>
