<svg width="66" height="60" viewBox="0 0 66 60" fill="none" xmlns="http://www.w3.org/2000/svg">
<g clip-path="url(#clip0_824_1343)">
<path d="M58.2952 6.1684C55.5775 6.30428 53.9469 7.93492 53.811 10.6526C53.811 12.0115 54.2186 13.2345 55.0339 14.0498C55.8493 14.8651 56.9363 15.2728 58.4311 15.4087C58.4311 15.4087 58.4311 15.4087 58.567 15.4087C61.2847 15.4087 62.9153 13.778 63.1871 10.7885V10.6526V10.5168C62.6436 7.66314 60.8771 6.1684 58.2952 6.1684ZM58.2952 13.9139C57.344 13.9139 56.5287 13.6421 55.8493 12.9627C55.3057 12.4192 55.0339 11.6038 55.0339 10.5168C55.0339 8.61435 56.2569 7.52726 58.1593 7.39137C58.2952 7.39137 58.2952 7.39137 58.2952 7.39137C60.1976 7.39137 61.1488 8.47846 61.4206 10.5168C61.4206 12.9627 60.3335 14.0498 58.2952 13.9139Z" fill="white"/>
<path d="M65.3613 5.89663C65.2254 2.77125 63.4589 0.597067 60.7412 0.325295C57.4799 -0.0823635 53.9469 -0.082364 50.4138 0.189408C47.2885 0.461181 44.0272 0.86884 40.9018 1.2765C38.4559 1.54827 35.874 1.95593 33.2922 2.2277C29.7591 2.63536 26.0902 2.77125 22.5572 2.90713H21.4701C20.6548 2.90713 19.8394 2.77125 19.7036 2.77125C19.16 1.68416 18.4806 1.00473 17.3935 0.732954C16.1705 0.325295 14.6758 0.732953 13.8605 1.2765C11.4145 2.90713 9.78387 1.95593 7.60969 0.597067L7.33792 0.461181C6.25083 -0.21825 4.34841 0.189409 3.39721 0.732954C1.63069 1.68416 0.815389 3.99422 1.63071 5.89663C2.03836 6.71195 2.31012 7.79903 2.44601 8.47847C2.5819 8.88612 2.58189 9.1579 2.71778 9.29378C3.12544 10.3809 3.66899 11.0603 4.4843 11.3321C5.57139 11.7397 6.79438 11.1962 7.74558 10.6526C8.01736 10.5168 8.42501 10.245 8.69678 10.1091C10.4633 9.1579 11.6863 8.34258 13.7246 9.83733C14.404 10.3809 15.8987 10.9244 17.3935 10.5168C18.0729 10.245 19.0241 9.70144 19.5677 8.34258C19.8395 8.20669 20.5189 8.07081 20.9265 8.20669C23.6443 8.34258 26.362 8.61435 29.0797 8.75024C34.5152 9.1579 39.9506 9.56555 45.5219 9.83733C46.8808 9.83733 47.6961 10.1091 48.1038 10.6526C48.3755 11.0603 48.5114 11.8756 48.2397 12.9627C47.9679 14.3216 47.2885 15.5445 46.609 16.224C42.3965 20.5723 38.0482 24.9207 33.0204 29.6767C32.341 30.3561 31.2539 30.8997 30.0309 31.3073C27.9926 31.8509 26.362 33.0739 25.5467 34.7045C24.5955 36.3351 24.4596 38.2375 25.139 40.4117C26.2261 43.9448 27.1773 47.7496 27.585 51.5544C28.2644 57.6693 30.4386 59.9793 35.6023 59.9793C35.874 59.9793 36.1458 59.9793 36.5535 59.9793C38.1841 59.8434 39.8147 59.9793 41.3095 59.9793C43.7554 60.1152 45.3861 59.5717 46.4731 58.6205C47.5602 57.6693 47.9679 56.1745 47.9679 53.8645C47.9679 51.962 47.9679 50.0596 47.9679 48.2931C47.9679 46.1189 47.9679 43.8089 47.9679 41.6347C47.9679 40.2758 47.6961 39.3246 47.0167 38.6452C46.3372 37.9658 45.3861 37.694 44.0272 37.8299C42.5324 37.8299 40.9018 37.8299 39.407 37.8299C38.8635 37.8299 38.4559 37.8299 37.9123 37.8299V37.694L38.32 37.2863C38.7276 36.7428 39.2712 36.1992 39.8147 35.7916C41.4453 34.161 42.9401 32.6662 44.5707 31.0356C47.9679 27.6384 51.5009 24.2413 54.7622 20.7082C57.0723 18.2623 58.8388 17.0393 61.8283 17.447C62.9154 17.5828 63.8666 17.447 64.546 16.9034C65.2254 16.3599 65.6331 15.4087 65.4972 14.1857C65.4972 13.3704 65.4972 12.4192 65.4972 11.6038C65.3613 9.70144 65.3613 7.79903 65.3613 5.89663ZM63.4589 15.8163C63.1871 16.0881 62.6436 16.224 61.8283 16.0881C57.8876 15.4087 55.5775 17.5828 53.5392 19.757C50.278 23.2901 46.7449 26.6872 43.3478 30.0844C41.7171 31.715 40.2224 33.2098 38.5917 34.8404C38.0482 35.3839 37.6405 35.9275 37.097 36.471L36.1458 37.5581L36.9611 39.3246H37.3688C38.0482 39.3246 38.5917 39.3246 39.2712 39.3246C40.7659 39.3246 42.3966 39.3246 44.0272 39.3246C44.9784 39.3246 45.6578 39.4605 45.9296 39.7323C46.3372 40.1399 46.4731 40.6835 46.4731 41.6347C46.4731 43.8089 46.4731 46.1189 46.4731 48.2931C46.4731 48.429 46.4731 48.7008 46.4731 48.8367C45.6578 48.0213 44.9784 47.3419 44.299 46.6625C41.7171 44.2165 39.4071 41.7706 36.8252 39.5964C36.0099 38.917 33.8357 39.0529 33.1563 39.8682C32.6128 40.4117 32.341 41.4988 32.341 42.1782C32.341 42.8577 32.4769 43.2653 32.7486 43.5371C35.1946 45.9831 37.7764 48.429 40.2224 50.7391C41.0377 51.5544 41.853 52.2338 42.6683 53.0491L43.076 53.4568L46.609 50.4673C46.609 51.5544 46.609 52.6415 46.609 53.7286C46.609 55.631 46.2014 56.854 45.5219 57.5334C44.7066 58.3487 43.3478 58.6205 41.3095 58.4846C39.8147 58.4846 38.1841 58.3487 36.4176 58.4846C31.2539 58.7564 29.6232 56.9898 28.9438 51.2826C28.5362 47.3419 27.4491 43.5371 26.362 39.8682C25.8184 38.1017 25.9543 36.471 26.6338 35.248C27.3132 34.0251 28.672 33.0739 30.3027 32.5303C31.7974 32.1227 33.0204 31.4432 33.9716 30.6279C38.9994 25.8719 43.3477 21.3877 47.5602 17.0393C48.5114 16.0881 49.1909 14.5933 49.5985 13.0986C50.0062 11.6038 49.8703 10.5168 49.1909 9.70144C48.5114 8.88613 47.4243 8.47847 45.5219 8.34258C40.0865 8.20669 34.5151 7.66315 29.2156 7.25549C26.4979 6.98372 23.7801 6.84783 21.0624 6.71195C21.0624 6.71195 20.9265 6.71195 20.7906 6.71195C20.2471 6.71195 18.6165 6.84783 18.3447 7.66315C18.0729 8.47847 17.6653 8.88612 16.9858 9.1579C16.0346 9.42967 14.9476 9.02201 14.5399 8.61435C11.8222 6.57606 9.78387 7.66315 8.01735 8.75024C7.74558 8.88612 7.33793 9.1579 7.06615 9.29378C6.11495 9.70144 5.43551 10.1091 4.89197 9.97321C4.48431 9.83733 4.21254 9.42967 3.94077 8.61435C3.94077 8.47847 3.80487 8.20669 3.80487 7.93492C3.66899 7.25549 3.26133 6.03251 2.85367 5.08131C2.31013 3.85833 2.85367 2.2277 4.07664 1.68416C4.89196 1.2765 6.25082 1.14061 6.79436 1.41238L7.06615 1.54827C9.24033 2.90713 11.5504 4.26599 14.8117 2.09182C15.2193 1.82004 16.3064 1.41238 17.1217 1.68416C17.8012 1.82004 18.2088 2.36359 18.4806 3.04302C18.8882 3.99422 20.7906 3.99422 21.4701 3.99422H22.5572C26.0902 3.85834 29.7591 3.72245 33.2922 3.31479C35.874 3.04302 38.4559 2.77125 40.9018 2.36359C44.0272 1.95593 47.1526 1.54827 50.2779 1.2765C53.811 1.00473 57.2081 1.00473 60.3335 1.41238C62.3718 1.68416 63.7307 3.17891 63.7307 5.62486C63.8666 7.52726 63.8666 9.42967 63.7307 11.1962C63.7307 12.1474 63.7307 12.9627 63.7307 13.9139C64.0025 14.7292 63.8666 15.4087 63.4589 15.8163ZM45.5219 49.5161L43.2119 51.5544C42.5324 50.875 41.853 50.3314 41.1736 49.652C38.5917 47.206 36.1458 44.896 33.8357 42.45C33.6998 42.1782 33.8357 40.9553 34.2434 40.5476C34.5152 40.2758 35.0587 40.2758 35.6023 40.2758C35.874 40.2758 36.0099 40.2758 36.1458 40.4117C38.5917 42.5859 41.0377 45.0318 43.4836 47.4778C44.0272 48.1572 44.8425 48.8367 45.5219 49.5161Z" fill="white"/>
<path d="M31.5255 34.1609L30.982 33.4815L30.4385 34.1609C30.1667 34.5686 29.759 34.8404 29.3514 35.1121C28.536 35.9275 27.8566 36.471 27.9925 37.2863C28.1284 38.1016 28.8078 38.7811 29.3514 39.4605C29.6231 39.7323 29.759 39.8682 30.0308 40.1399L30.4385 40.6835L30.982 40.1399C31.2538 39.8682 31.3896 39.7323 31.6614 39.4605C32.3409 38.9169 33.1562 38.3734 33.292 37.4222C33.5638 36.7428 32.8844 36.0633 32.205 35.1121C32.205 34.9763 31.7973 34.5686 31.5255 34.1609ZM31.1179 38.5093C30.982 38.6452 30.982 38.6452 30.8461 38.7811C30.7102 38.6452 30.7102 38.6452 30.5743 38.5093C30.0308 37.9658 29.6231 37.5581 29.4873 37.1504C29.4873 37.0145 30.0308 36.471 30.4385 36.1992C30.5743 36.0633 30.8461 35.9275 30.982 35.6557C31.1179 35.9275 31.3897 36.0633 31.5255 36.1992C31.7973 36.6069 32.205 37.0145 32.3409 37.2863C32.0691 37.694 31.5255 38.1016 31.1179 38.5093Z" fill="white"/>
<path d="M14.1321 23.0182C13.5886 23.0182 12.9092 23.1541 12.2297 23.1541C10.735 23.4259 9.6479 24.1053 8.42493 24.9207L9.10436 27.7743C10.1914 26.6872 11.8221 26.1436 13.3168 25.736L14.1321 23.0182Z" fill="white"/>
<path d="M15.491 17.8545C15.3551 17.8545 15.2192 17.8545 15.0833 17.8545C12.3656 18.1263 9.78378 18.9416 7.33783 20.4363L8.01726 23.1541C9.91967 21.5234 12.3656 21.1158 14.8116 20.9799L15.491 17.8545Z" fill="white"/>
<path d="M6.79424 18.5341C9.37608 16.224 12.6373 15.8163 16.0345 16.224L16.1704 15.5446L6.11481 15.6804L6.79424 18.5341Z" fill="white"/>
<path d="M12.6374 28.4538C11.5503 28.7256 10.5991 29.1332 9.51202 29.6768L10.8709 34.9763L12.6374 28.4538Z" fill="white"/>
<path d="M11.4144 11.8756C6.25071 11.7397 6.11481 14.1856 6.11481 14.1856H16.3063C16.1704 14.1856 16.5781 12.0115 11.4144 11.8756Z" fill="white"/>
<path d="M27.1772 59.5716L23.5083 49.7878H3.12539L0 59.5716H27.1772Z" fill="white"/>
</g>
<defs>
<clipPath id="clip0_824_1343">
<rect width="65.5232" height="60" fill="white"/>
</clipPath>
</defs>
</svg>
