<svg width="73" height="80" viewBox="0 0 73 80" fill="none" xmlns="http://www.w3.org/2000/svg">
<g clip-path="url(#clip0_892_483)">
<path d="M59.4911 80.0003C43.8732 80.0003 28.3745 80.0003 12.7566 80.0003C12.7566 77.7351 12.7566 75.4698 12.7566 73.2046C28.3745 73.2046 43.8732 73.2046 59.4911 73.2046C59.4911 75.4698 59.4911 77.6158 59.4911 80.0003Z" fill="#EC6563"/>
<path d="M72.7245 25.6355C71.4131 30.6428 70.1017 35.65 68.671 40.5381C67.598 39.4651 67.3596 38.273 67.5981 36.7231C67.9557 34.4579 68.1941 32.0734 68.4326 29.8082C67.2404 29.6888 66.0482 29.5699 64.856 29.4505C64.0214 29.3311 63.6638 29.5699 63.1869 30.2851C61.8755 31.9542 60.0872 32.9079 57.9412 33.1463C57.7027 33.1463 57.4643 33.2658 57.3451 33.3847C56.749 34.6961 56.1529 36.0075 55.5568 37.3189C56.8682 37.915 58.0604 38.3919 59.2526 38.988C60.3256 39.465 61.2794 39.9418 62.3523 40.2995C63.783 40.6573 64.2599 41.7301 64.856 42.9224C59.7295 41.611 54.8415 40.2995 49.8342 38.8688C50.1919 37.4382 50.5495 36.1268 50.9072 34.8154C51.2648 33.6232 51.6225 32.3117 51.8609 31.1195C51.8609 30.8811 51.8609 30.5234 51.7417 30.4042C50.0726 28.0197 49.5957 25.5161 50.7879 22.7741C50.9072 22.5357 50.7879 22.178 50.6687 22.0587C49.8342 20.5089 48.8804 18.8398 47.9266 17.1708C50.7879 16.813 53.0531 15.5016 54.8414 13.1172C55.7952 14.7863 56.749 16.3362 57.5835 17.8861C57.822 18.363 58.0604 18.4821 58.5373 18.4821C61.2793 18.8398 63.0677 20.3896 64.2599 22.7741C64.4983 23.2509 64.8559 23.4894 65.3328 23.7278C67.4788 24.324 69.744 24.9201 71.89 25.5162C72.2476 25.3968 72.3669 25.5161 72.7245 25.6355ZM57.5835 30.1659C60.0871 30.1659 62.1139 28.1392 62.1139 25.6355C62.1139 23.1319 60.0871 21.1051 57.5835 21.1051C55.0799 21.1051 53.0531 23.1319 53.0531 25.6355C53.0531 28.1392 55.0799 30.1659 57.5835 30.1659Z" fill="#EC6563"/>
<path d="M47.5692 55.0833C47.6884 61.1635 42.6811 66.4091 36.4817 66.6476C30.4014 66.886 24.6788 61.9981 24.6788 55.2025C24.6788 48.6454 29.9245 43.6381 36.124 43.6381C42.6811 43.5187 47.6884 49.2415 47.5692 55.0833ZM36.0048 61.8788C39.7006 61.8788 42.8004 58.8983 42.9196 55.0833C42.9196 51.3874 39.8198 48.2876 36.124 48.1684C32.4282 48.1684 29.3284 51.149 29.2092 54.8448C29.2092 58.7791 32.1897 61.8788 36.0048 61.8788Z" fill="#EC6563"/>
<path d="M15.618 18.8396C23.0096 15.1437 30.2821 11.4479 37.6738 7.63281C37.9122 11.0902 39.3429 13.8322 42.4426 15.7398C35.5278 20.2702 28.7322 24.6814 21.6982 29.2118C21.6982 26.9466 21.1021 25.039 20.1483 23.1315C18.9561 21.3432 17.5255 19.9126 15.618 18.8396Z" fill="#EC6563"/>
<path d="M21.4599 30.8813C25.871 34.5772 30.2822 38.273 34.6934 41.9689C31.5936 42.3267 28.8516 43.638 26.7056 45.784C24.5596 47.93 23.3674 50.5528 22.8906 53.7718C19.1947 49.3606 15.6181 45.0686 11.9222 40.6574C14.4259 40.1805 16.5719 39.1075 18.2409 37.4384C19.91 35.5309 21.1022 33.5042 21.4599 30.8813Z" fill="#EC6563"/>
<path d="M0 28.9733C0 23.7276 4.1727 19.0781 9.89529 19.0781C15.8563 19.0781 19.9098 23.9662 19.9098 29.2119C19.9098 34.4576 15.3794 38.9879 10.0145 38.9879C4.53036 38.9879 0.119219 34.4574 0 28.9733ZM3.93427 28.9733C3.93427 32.3115 6.55711 35.1729 9.89529 35.1729C13.2335 35.1729 16.0948 32.4308 16.0948 29.0927C16.0948 25.7545 13.3527 23.0123 10.0145 23.0123C6.79556 22.8929 3.93427 25.6351 3.93427 28.9733Z" fill="#EC6563"/>
<path d="M47.4497 61.998C48.9996 65.217 50.5495 68.3167 52.0993 71.5357C41.4887 71.5357 30.878 71.5357 20.1482 71.5357C21.6981 68.3167 23.2479 65.217 24.7978 61.998C27.5399 65.9323 31.2357 68.3167 36.1238 68.3167C40.8926 68.3167 44.5884 66.0515 47.4497 61.998Z" fill="#EC6563"/>
<path d="M54.8414 7.6331C54.8414 11.8058 51.384 15.3824 47.2113 15.3824C43.277 15.3824 39.4619 12.4019 39.4619 7.75232C39.4619 3.22193 43.1578 0.00300249 47.2113 0.00300249C51.384 -0.116406 54.8414 3.34116 54.8414 7.6331ZM52.0993 7.6331C52.0993 4.89103 49.8341 2.62576 47.0921 2.62576C44.35 2.62576 42.0848 4.89103 42.0848 7.6331C42.0848 10.3752 44.35 12.6403 47.0921 12.6403C49.8341 12.6403 52.0993 10.3752 52.0993 7.6331Z" fill="#EC6563"/>
<path d="M57.5837 28.6162C56.0338 28.6162 54.7224 27.3047 54.7224 25.7549C54.7224 24.205 56.0338 22.8936 57.5837 22.8936C59.1336 22.8936 60.445 24.205 60.445 25.7549C60.445 27.1855 59.1336 28.497 57.5837 28.6162Z" fill="#EC6563"/>
<path d="M41.2505 55.0833C41.2505 58.0638 38.8661 60.3289 35.8856 60.2097C33.1435 60.2097 30.7591 57.8253 30.7591 54.964C30.7591 52.1028 33.1435 49.7183 36.0048 49.7183C38.9853 49.8377 41.2505 52.222 41.2505 55.0833Z" fill="#EC6563"/>
<path d="M10.0144 24.5625C12.518 24.5625 14.4256 26.5892 14.4256 28.9736C14.4256 31.4772 12.3988 33.5041 9.89517 33.3848C7.51076 33.3848 5.48401 31.358 5.48401 28.9736C5.60324 26.5892 7.51076 24.5625 10.0144 24.5625Z" fill="#EC6563"/>
<path d="M47.0921 10.9713C45.1846 10.9713 43.7539 9.54075 43.7539 7.51401C43.7539 5.72572 45.3038 4.17578 47.0921 4.17578C48.9997 4.17578 50.4303 5.72572 50.4303 7.63323C50.4303 9.54075 48.9997 10.9713 47.0921 10.9713Z" fill="#EC6563"/>
</g>
<defs>
<clipPath id="clip0_892_483">
<rect width="72.7246" height="80" fill="white"/>
</clipPath>
</defs>
</svg>
