<svg width="98" height="80" viewBox="0 0 98 80" fill="none" xmlns="http://www.w3.org/2000/svg">
<g clip-path="url(#clip0_892_497)">
<path d="M48.9897 62.1666C62.2999 62.1666 75.4809 62.1666 88.791 62.1666C93.8308 62.1666 97.7075 66.0433 97.8368 71.0831C97.8368 75.9936 93.8308 79.9997 88.9202 79.9997C67.0812 79.9997 45.2422 79.9997 23.274 79.9997C18.4926 79.9997 13.8406 79.9997 9.05923 79.9997C4.27791 79.9997 0.271924 76.2522 0.0134776 71.6001C-0.244989 66.948 3.24411 62.8128 7.89621 62.2959C9.96381 62.0376 12.1606 62.1664 14.2282 62.1664C25.8585 62.1664 37.4887 62.1664 48.9897 62.1664V62.1666ZM18.6219 71.2123C18.6219 73.1507 20.431 74.9598 22.3694 74.8306C24.437 74.8306 26.1169 73.0216 26.1169 70.954C26.1169 69.0156 24.3078 67.3356 22.4986 67.3356C20.3018 67.3356 18.6219 69.1447 18.6219 71.2123ZM79.2284 70.954C79.2284 68.8864 77.4192 67.3358 75.3516 67.3358C73.4133 67.3358 71.7333 69.1449 71.7333 71.0832C71.8626 73.1508 73.5425 74.8308 75.6101 74.7016C77.6777 74.7016 79.2284 73.0216 79.2284 70.954ZM45.2422 71.0834C45.2422 73.151 46.7929 74.8309 48.8605 74.8309C50.7989 74.8309 52.608 73.151 52.608 71.0834C52.608 69.145 50.9281 67.3359 48.8605 67.3359C46.6637 67.4654 45.2422 69.2742 45.2422 71.0834ZM12.8068 71.0834C12.8068 69.145 11.3853 67.4652 9.05923 67.4652C6.99163 67.4652 5.44093 69.145 5.44093 71.2126C5.44093 73.151 7.12084 74.8309 9.18844 74.8309C11.1268 74.8309 12.8068 73.151 12.8068 71.0834ZM65.9182 71.0834C65.9182 69.0158 64.2383 67.3359 62.1707 67.3359C60.2323 67.3359 58.5524 69.0158 58.5524 71.0834C58.5524 73.151 60.1031 74.8309 62.1707 74.8309C64.2383 74.8309 65.9182 73.151 65.9182 71.0834ZM39.4271 71.0834C39.4271 69.145 37.6179 67.3359 35.6796 67.4652C33.612 67.4652 31.8028 69.2742 31.932 71.2126C31.932 73.151 33.7412 74.8309 35.6796 74.8309C37.6179 74.8309 39.4271 73.0218 39.4271 71.0834ZM92.5385 71.2129C92.5385 69.1453 90.7294 67.3361 88.791 67.4653C86.8526 67.4653 85.0435 69.2745 85.0435 71.2129C85.0435 73.1513 86.8526 74.8312 88.791 74.8312C90.7294 74.8312 92.5385 73.022 92.5385 71.2129Z" fill="#EC6563"/>
<path d="M59.0691 45.8843C54.5462 43.429 50.2818 41.103 45.8881 38.6477C45.8881 45.3674 45.8881 51.9579 45.8881 58.6776C38.1346 58.6776 30.5103 58.6776 22.7568 58.6776C22.7568 54.1547 22.7568 49.6318 22.7568 45.1089C22.6276 45.1089 22.6276 45.1089 22.4984 45.1089C22.2399 45.755 21.8522 46.2719 21.5938 46.9181C20.0431 50.0195 18.3632 53.1209 16.8125 56.2223C15.7787 58.2899 13.065 59.1945 10.9974 58.1607C8.80053 56.9977 7.89597 54.5424 9.05899 52.3456C12.2896 46.1428 15.391 39.8108 18.7509 33.7372C20.8185 29.8605 24.4368 27.7928 28.572 26.759C35.0332 25.0791 41.236 26.2421 46.9219 29.4728C50.6694 31.6696 54.5462 33.7371 58.4229 35.8047C58.9398 36.0631 59.1983 36.3217 59.1983 36.9678C59.069 39.8107 59.069 42.7829 59.069 45.8843H59.0691Z" fill="#EC6563"/>
<path d="M88.6621 37.8726C88.6621 44.7215 88.6621 51.5704 88.6621 58.4193C80.004 58.4193 71.4751 58.4193 62.8171 58.4193C62.8171 51.5704 62.8171 44.7215 62.8171 37.8726C71.3459 37.8726 79.8748 37.8726 88.6621 37.8726ZM85.4314 53.3795C84.7853 53.3795 84.1392 53.3795 83.4931 53.3795C83.4931 54.0256 83.4931 54.6718 83.4931 55.1887C84.1392 55.1887 84.7853 55.1887 85.4314 55.1887C85.4314 54.6718 85.4314 54.0256 85.4314 53.3795ZM77.0318 53.3795C76.3857 53.3795 75.7396 53.3795 75.2227 53.3795C75.2227 54.0256 75.2227 54.6718 75.2227 55.1887C75.8688 55.1887 76.5149 55.1887 77.0318 55.1887C77.0318 54.6718 77.0318 54.0256 77.0318 53.3795ZM79.3579 53.3795C79.3579 54.0256 79.3579 54.6718 79.3579 55.1887C80.004 55.1887 80.6501 55.1887 81.167 55.1887C81.167 54.5426 81.167 53.8964 81.167 53.3795C80.5209 53.3795 80.004 53.3795 79.3579 53.3795Z" fill="#EC6563"/>
<path d="M45.1131 10.8647C45.1131 16.809 40.2025 21.7196 34.129 21.7196C28.1846 21.7196 23.2741 16.9382 23.1449 11.1231C23.0156 5.30797 27.5385 0.00974743 33.9997 0.00974743C40.3318 -0.248621 45.1131 4.66186 45.1131 10.8647Z" fill="#EC6563"/>
</g>
<defs>
<clipPath id="clip0_892_497">
<rect width="97.8368" height="80" fill="white"/>
</clipPath>
</defs>
</svg>
