<svg width="64" height="80" viewBox="0 0 64 80" fill="none" xmlns="http://www.w3.org/2000/svg">
<g clip-path="url(#clip0_892_509)">
<path d="M49.6136 0.000205356C49.8509 2.3741 50.9193 4.27317 51.8688 6.29101C53.2932 9.13966 54.7175 12.1069 56.0231 14.9556C56.4979 16.0238 56.9726 17.0921 57.3287 18.1604C57.6849 19.2286 57.4476 19.5847 56.3791 19.466C54.7175 19.2287 53.1745 18.9912 51.6315 18.6351C50.9193 18.5163 50.5632 18.6351 50.0884 19.2286C48.5454 21.4837 46.8837 23.8576 45.1033 25.9941C43.6789 27.7745 41.8985 29.3176 40.2368 30.8606C37.9816 32.8784 35.3703 34.5401 32.7591 36.0831C30.2665 37.5075 27.7739 38.5757 25.044 39.5252C23.0262 40.1187 21.0084 40.5935 18.9906 41.0683C15.6672 41.7804 12.3438 42.1365 8.90165 41.8991C7.00256 41.7803 5.10347 41.543 3.32309 41.3057C2.61093 41.1872 1.78003 41.0683 1.06787 40.8309C8.66426 39.644 15.5485 36.914 21.8393 32.4036C28.13 27.8933 32.9965 22.3147 36.4386 15.3117C34.5395 14.837 32.7591 14.4808 30.86 14.0061C32.0469 13.4126 33.1152 12.8191 34.0648 12.107C35.9639 10.8013 37.8629 9.377 39.762 7.95268C42.1359 6.05359 44.3911 4.15448 46.6463 2.25535C47.4772 1.54319 48.1893 0.831064 49.0201 0.118901C49.2575 0.118901 49.3764 0.118881 49.6136 0V0.000205356Z" fill="#EC6563"/>
<path d="M44.2726 72.4031C44.2726 72.0469 44.2726 71.8096 44.2726 71.5722C44.2726 60.0589 44.2726 48.5456 44.2726 37.151C44.2726 34.4211 46.4091 32.7593 48.5456 32.878C50.9194 32.9969 53.2933 32.9969 55.5485 32.878C57.8037 32.7592 59.7028 34.5397 59.7028 37.0322C59.7028 48.6642 59.7028 60.1776 59.7028 71.8096C59.7028 72.2843 59.7028 72.6404 58.9906 72.6404C54.2429 72.6404 49.6138 72.6404 44.8661 72.6404C44.8661 72.4031 44.6287 72.4031 44.2726 72.4031V72.4031Z" fill="#EC6563"/>
<path d="M23.8574 72.4034C23.8574 72.0472 23.8574 71.6913 23.8574 71.4539C23.8574 63.5014 23.8574 55.5489 23.8574 47.5964C23.8574 45.3413 25.5191 43.7982 27.6556 43.6795C30.2669 43.5606 32.8781 43.5606 35.4894 43.6795C37.6259 43.7984 39.2876 45.4599 39.2876 47.8338C39.2876 51.2759 39.2876 54.8367 39.2876 58.2788C39.2876 62.7892 39.2876 67.1809 39.2876 71.6912C39.2876 72.2847 39.1687 72.5221 38.5754 72.5221C33.9464 72.5221 29.3173 72.5221 24.6883 72.5221C24.451 72.4032 24.2135 72.4032 23.8574 72.4032V72.4034Z" fill="#EC6563"/>
<path d="M18.7535 63.6203C18.7535 66.3503 18.7535 69.0802 18.7535 71.8102C18.7535 72.285 18.6346 72.5224 18.0413 72.5224C13.4123 72.5224 8.6645 72.5224 4.03546 72.5224C3.442 72.5224 3.20459 72.2851 3.20459 71.6915C3.20459 66.469 3.20459 61.1278 3.20459 55.9053C3.20459 53.4127 4.74762 51.8697 7.35887 51.751C9.85146 51.751 12.2253 51.751 14.7179 51.751C16.9731 51.751 18.7535 53.6501 18.6348 55.7866C18.7537 58.2792 18.7537 60.8904 18.7537 63.6203H18.7535Z" fill="#EC6563"/>
<path d="M0 79.9996C0 78.694 0 77.5071 0 76.2014C0 76.0826 0.23729 75.8452 0.474783 75.7267C0.593663 75.6078 0.830998 75.7267 0.949565 75.7267C21.3649 75.7267 41.7802 75.7267 62.0769 75.7267C62.3142 75.7267 62.5517 75.6078 62.789 75.7267C63.0263 75.8455 63.2638 75.964 63.2638 76.2014C63.2638 77.3884 63.2638 78.694 63.2638 79.8809C42.1363 79.9998 21.1275 79.9998 0 79.9998V79.9996Z" fill="#EC6563"/>
</g>
<defs>
<clipPath id="clip0_892_509">
<rect width="63.2638" height="80" fill="white"/>
</clipPath>
</defs>
</svg>
