<svg width="81" height="80" viewBox="0 0 81 80" fill="none" xmlns="http://www.w3.org/2000/svg">
<g clip-path="url(#clip0_892_503)">
<path d="M21.7669 48.1778C20.4726 48.413 19.4137 48.6486 18.4724 48.7662C17.6488 48.8836 17.0605 48.6484 16.9428 47.8249C16.4722 45.8247 16.1193 43.7068 15.6486 41.7066C15.5308 41.1182 15.8839 40.53 16.5899 40.4123C17.4135 40.177 18.3548 40.0592 19.1784 39.9416C20.2374 39.7064 20.4727 39.471 20.708 38.2944C20.9432 37.0001 21.1786 35.5883 21.5316 34.294C21.7669 33.5881 21.5316 33.1175 20.9433 32.6468C20.2374 32.1762 19.5314 31.7055 18.8254 31.2349C17.8841 30.6466 17.7665 30.0583 18.3548 29.117C19.4137 27.4698 20.4727 25.9402 21.5316 24.293C22.0022 23.4694 22.5905 23.3517 23.4141 23.8224C24.2377 24.293 24.9437 24.7637 25.7673 25.3519C26.3556 25.8226 26.9439 25.7051 27.5322 25.2341C28.7088 24.4105 30.003 23.5869 31.1796 22.7633C31.7679 22.4102 32.0033 21.9396 31.8856 21.2337C31.7677 20.2924 31.5325 19.3512 31.2973 18.4099C31.1794 17.5863 31.4151 16.998 32.2386 16.8804C34.2388 16.4097 36.239 16.0567 38.2392 15.5861C39.0628 15.4682 39.5334 15.8214 39.7687 16.645C39.8866 17.4687 40.1218 18.2922 40.2394 19.2334C40.4746 20.2924 40.7101 20.5277 41.769 20.6454C43.1809 20.8806 44.4751 21.116 45.887 21.469C46.593 21.7042 47.1813 21.469 47.5343 20.8807C48.0049 20.1747 48.4755 19.4688 48.9462 18.6451C49.5344 17.8215 50.1228 17.704 50.9464 18.1746C52.5936 19.2335 54.2409 20.4101 55.8881 21.469C56.594 21.9397 56.7117 22.528 56.2411 23.3516C55.7705 24.1751 55.2999 24.8812 54.7115 25.7048C54.2409 26.2931 54.3585 26.8814 54.8294 27.4697C55.653 28.6463 56.4767 29.8228 57.3003 31.1171C57.6534 31.7054 58.1239 31.9407 58.8299 31.823C59.7711 31.5878 60.5947 31.47 61.536 31.3524C62.4773 31.2345 62.9479 31.4702 63.1833 32.4113C63.6539 34.4115 64.0068 36.2941 64.3598 38.2943C64.4777 39.1179 64.1246 39.7062 63.3009 39.8238C62.3596 39.9417 61.536 40.1769 60.5947 40.2945C59.8888 40.4123 59.5358 40.7651 59.4181 41.4711C59.1829 43.0007 58.8298 44.5302 58.4768 46.0597C58.359 46.6481 58.5947 47.1187 59.0651 47.354C59.8888 47.8246 60.5947 48.413 61.4184 48.8836C62.242 49.4719 62.3596 50.0602 61.7714 50.8838C60.7125 52.531 59.6535 54.0606 58.477 55.7078C58.0063 56.4138 57.3004 56.5315 56.5944 56.0609C55.8884 55.5903 55.0649 55.1196 54.3589 54.5313C53.7706 54.0607 53.1823 54.1782 52.594 54.5313C51.4174 55.355 50.1232 56.1786 48.9466 57.0022C48.3583 57.3553 48.1229 57.8259 48.2406 58.5318C48.4758 59.3554 48.5937 60.2967 48.7113 61.1204C48.9466 62.1793 48.5934 62.6498 47.5346 62.8851C45.6521 63.2382 43.7696 63.7088 41.7694 64.0617C40.9458 64.1796 40.3574 63.9439 40.2398 63.0028C40.0045 62.0615 39.8867 61.1204 39.7691 60.1791C39.6513 59.4731 39.2986 59.1201 38.5926 59.0025C37.1807 58.7672 35.6511 58.5318 34.2392 58.1788C33.4156 57.9436 32.945 58.1788 32.592 58.7671C32.1213 59.4731 31.6507 60.2967 31.18 61.0027C30.7094 61.7086 30.0034 61.9438 29.2974 61.4732C27.6502 60.4142 25.8853 59.2378 24.2381 58.0612C23.6498 57.5905 23.5321 57.0022 23.885 56.2963C24.3556 55.4726 24.8263 54.7667 25.4146 53.943C25.8852 53.3547 25.7677 52.7664 25.4146 52.1781C24.5909 51.0015 23.7674 49.7073 22.8261 48.5308C22.473 48.6486 22.0025 48.4129 21.7671 48.1776L21.7669 48.1778ZM40.357 26.8815C32.9445 26.8815 27.0615 32.6468 27.0615 39.824C27.0615 47.1189 32.8268 53.0019 40.0041 53.0019C47.2989 53.0019 53.1819 47.1189 53.1819 39.9416C53.2997 32.7644 47.5343 26.8815 40.357 26.8815Z" fill="#EC6563"/>
<path d="M80.1258 39.9411C80.0079 58.7666 67.0656 75.0036 48.8284 79.004C38.4744 81.2396 28.8263 79.7099 19.6489 74.4152C18.9429 74.0622 18.59 74.0622 18.0017 74.6506C17.6486 75.0037 17.2958 75.3565 16.9428 75.7095C16.8249 75.8274 16.4721 76.0625 16.3544 75.9447C16.1192 75.8269 16.0014 75.5916 16.0014 75.3564C15.7662 73.2385 15.5307 71.003 15.413 68.8852C15.413 68.4145 15.2952 67.9439 15.2952 67.4732C15.2952 66.885 15.5305 66.6496 16.1189 66.6496C18.7073 66.8849 21.4135 67.1203 24.0019 67.3556C24.2372 67.3556 24.5903 67.5909 24.7079 67.7087C24.8257 67.8265 24.5901 68.1793 24.3549 68.297C24.0018 68.6501 23.6489 69.003 23.2959 69.4736C22.7076 70.062 22.7076 70.2972 23.4137 70.6502C27.2965 72.7681 31.4146 74.1799 35.768 74.6506C43.6511 75.5919 51.0636 74.2976 57.8878 70.1796C67.1829 64.6496 72.9483 56.4134 74.8308 45.7064C76.2427 37.8232 74.9486 30.4107 71.1834 23.3512C70.7127 22.4099 70.5951 21.5862 71.1834 20.645C71.654 19.8214 72.4776 19.4684 73.4189 19.586C74.3602 19.586 74.9485 20.0567 75.4191 20.8803C77.7723 25.116 79.3018 29.7048 79.8901 34.5288C79.7723 36.4114 79.8901 38.1762 80.1254 39.9411H80.1258Z" fill="#EC6563"/>
<path d="M0.000203566 40.0592C0.118048 21.5867 12.9428 5.34983 30.827 1.1141C40.828 -1.2391 50.3584 0.172717 59.4181 4.99678C60.7124 5.70274 60.5947 5.70284 61.6536 4.6438C62.1243 4.29071 62.3596 3.46722 63.1832 3.82017C63.8892 4.05542 63.5363 4.87914 63.6539 5.34976C63.8891 7.46763 64.007 9.58546 64.2422 11.7033C64.36 12.7623 64.1243 12.9976 63.0656 12.8799C60.7124 12.6447 58.3592 12.5268 56.006 12.2916C55.7708 12.2916 55.3001 12.0564 55.1824 11.821C55.0646 11.5857 55.3003 11.2327 55.4177 10.9974C55.5355 10.7621 55.6529 10.6442 55.8882 10.5267C56.8295 9.58542 56.8296 9.35009 55.5352 8.7618C49.5345 5.82031 43.1809 4.64381 36.4744 5.34976C21.414 6.87934 8.94214 17.9392 5.76532 32.6466C4.00046 41.0004 5.05933 49.0013 8.9421 56.5315C9.88335 58.2964 9.41273 59.8259 8.00081 60.4142C6.82424 60.8848 5.52998 60.4143 4.9417 59.2377C2.9415 55.5903 1.52958 51.8251 0.941288 47.8247C0.470666 45.1186 0.353 42.53 0 40.0592H0.000203566Z" fill="#EC6563"/>
<path d="M32.5921 40.0595C32.5921 36.0591 36.0042 32.5293 40.0046 32.5293C44.2403 32.5293 47.6525 35.9414 47.6525 40.0595C47.6525 44.1775 44.2404 47.7073 40.1223 47.7073C36.0042 47.5895 32.5921 44.1775 32.5921 40.0595Z" fill="#EC6563"/>
</g>
<defs>
<clipPath id="clip0_892_503">
<rect width="80.1262" height="80" fill="white"/>
</clipPath>
</defs>
</svg>
