<svg width="11" height="19" viewBox="0 0 11 19" fill="none" xmlns="http://www.w3.org/2000/svg">
<path d="M1.10144 0C0.491295 0 0 0.490179 0 1.10032V17.4868C0 18.0969 0.491295 18.5882 1.10144 18.5882H8.9076C9.51775 18.5882 10.009 18.0969 10.009 17.4868V1.10032C10.009 0.490179 9.51775 0 8.9076 0H1.10144ZM3.14346 0.936114H6.83095C7.12944 0.936114 7.36938 1.17605 7.36938 1.47454V1.4969C7.36938 1.79539 7.12944 2.03533 6.83095 2.03533H3.14346C2.84497 2.03533 2.60503 1.79539 2.60503 1.4969V1.47454C2.60503 1.17605 2.84497 0.936114 3.14346 0.936114ZM0.687004 3.09878H9.3131C9.32868 3.09878 9.34104 3.11114 9.34104 3.12672V14.8818C9.34104 14.8973 9.32868 14.9097 9.3131 14.9097H0.687004C0.671425 14.9097 0.659064 14.8973 0.659064 14.8818V3.12672C0.659064 3.11114 0.671425 3.09878 0.687004 3.09878ZM4.97436 15.4894C5.28513 15.4895 5.58317 15.613 5.80292 15.8327C6.02267 16.0525 6.14614 16.3505 6.14618 16.6613C6.14614 16.972 6.02266 17.2701 5.80291 17.4898C5.58316 17.7096 5.28513 17.833 4.97436 17.8331C4.66359 17.833 4.36555 17.7096 4.1458 17.4898C3.92605 17.2701 3.80258 16.972 3.80254 16.6613C3.80258 16.3505 3.92605 16.0525 4.1458 15.8327C4.36555 15.613 4.66359 15.4895 4.97436 15.4894Z" fill="white"/>
</svg>
