<svg width="14" height="18" viewBox="0 0 14 18" fill="none" xmlns="http://www.w3.org/2000/svg">
<path d="M2.25 17.7975L0 16.206V5.556L2.25 6.57525V17.7975ZM3.75 6.65625V18L13.5 16.5345V5.25L3.75 6.65625ZM8.22225 0.75C6.6495 0.75 5.25375 2.25375 5.25075 3.9495L5.25 5.21175C5.25 5.4405 5.45475 5.61675 5.68125 5.58225C5.86425 5.5545 6 5.397 6 5.21175V3.951C6.00225 2.6685 7.062 1.5 8.22225 1.5C8.625 1.5 8.98425 1.64625 9.26025 1.923C9.57675 2.24025 9.75075 2.69925 9.75 3.21825V4.5285C9.75 4.75725 9.95475 4.9335 10.1813 4.899C10.3635 4.87125 10.4985 4.7145 10.4985 4.53L10.5 3.21825C10.5015 1.79025 9.51 0.75 8.22225 0.75ZM3.42975 5.24625C3.6135 5.2185 3.75 5.061 3.75 4.875V3.201C3.7515 1.9185 4.812 0.75 5.97225 0.75L6.09375 0.76125C6.36825 0.549 6.6675 0.3765 6.98475 0.249C6.681 0.09375 6.34125 0 5.97225 0C4.40025 0 3.00375 1.50375 3.00075 3.1995V4.87575C3.00075 5.10525 3.20475 5.27925 3.42975 5.24625Z" fill="white"/>
</svg>
